<mxfile host="Electron" agent="Mozilla/5.0 (X11; Linux x86_64) AppleWebKit/537.36 (KHTML, like Gecko) draw.io/26.0.4 Chrome/128.0.6613.186 Electron/32.2.5 Safari/537.36" version="26.0.4" pages="2">
  <diagram name="Auth" id="078_vXUjy4FAUJJ1JWsh">
    <mxGraphModel dx="2049" dy="1193" grid="1" gridSize="10" guides="1" tooltips="1" connect="1" arrows="1" fold="1" page="1" pageScale="1" pageWidth="850" pageHeight="1100" math="0" shadow="0">
      <root>
        <mxCell id="0" />
        <mxCell id="1" parent="0" />
        <mxCell id="PxZXXpu_mpko-BkxEv01-7" style="edgeStyle=orthogonalEdgeStyle;rounded=0;orthogonalLoop=1;jettySize=auto;html=1;entryX=0.5;entryY=0;entryDx=0;entryDy=0;entryPerimeter=0;labelBackgroundColor=default;" edge="1" parent="1" source="t9iJrchAdI6HD7SIDU0L-1" target="t9iJrchAdI6HD7SIDU0L-5">
          <mxGeometry relative="1" as="geometry" />
        </mxCell>
        <mxCell id="t9iJrchAdI6HD7SIDU0L-1" value="Lambda&lt;div&gt;Sign-in&lt;/div&gt;&lt;div&gt;Autentica o usuário, retornando um access token&lt;/div&gt;" style="sketch=0;points=[[0,0,0],[0.25,0,0],[0.5,0,0],[0.75,0,0],[1,0,0],[0,1,0],[0.25,1,0],[0.5,1,0],[0.75,1,0],[1,1,0],[0,0.25,0],[0,0.5,0],[0,0.75,0],[1,0.25,0],[1,0.5,0],[1,0.75,0]];outlineConnect=0;fontColor=#FFFFFF;fillColor=#ED7100;strokeColor=#ffffff;dashed=0;verticalLabelPosition=bottom;verticalAlign=top;align=center;html=1;fontSize=12;fontStyle=0;aspect=fixed;shape=mxgraph.aws4.resourceIcon;resIcon=mxgraph.aws4.lambda;labelBackgroundColor=default;" vertex="1" parent="1">
          <mxGeometry x="470" y="300" width="78" height="78" as="geometry" />
        </mxCell>
        <mxCell id="t9iJrchAdI6HD7SIDU0L-2" value="SQS&lt;div&gt;user_created&lt;br&gt;&lt;div&gt;Recebe eventos de usuário criado&lt;/div&gt;&lt;div&gt;consumidor sincroniza dados do usuário criado&lt;/div&gt;&lt;/div&gt;&lt;div&gt;em seu DB gerenciado&lt;/div&gt;" style="sketch=0;points=[[0,0,0],[0.25,0,0],[0.5,0,0],[0.75,0,0],[1,0,0],[0,1,0],[0.25,1,0],[0.5,1,0],[0.75,1,0],[1,1,0],[0,0.25,0],[0,0.5,0],[0,0.75,0],[1,0.25,0],[1,0.5,0],[1,0.75,0]];outlineConnect=0;fontColor=#FFFFFF;fillColor=#E7157B;strokeColor=#ffffff;dashed=0;verticalLabelPosition=bottom;verticalAlign=top;align=center;html=1;fontSize=12;fontStyle=0;aspect=fixed;shape=mxgraph.aws4.resourceIcon;resIcon=mxgraph.aws4.sqs;labelBackgroundColor=default;" vertex="1" parent="1">
          <mxGeometry x="1258" y="690" width="78" height="78" as="geometry" />
        </mxCell>
        <mxCell id="PxZXXpu_mpko-BkxEv01-13" style="edgeStyle=orthogonalEdgeStyle;rounded=0;orthogonalLoop=1;jettySize=auto;html=1;" edge="1" parent="1" source="t9iJrchAdI6HD7SIDU0L-3" target="gktEL5zK5B-jhbFFRFUQ-2">
          <mxGeometry relative="1" as="geometry" />
        </mxCell>
        <mxCell id="t9iJrchAdI6HD7SIDU0L-3" value="dynamodb&lt;div&gt;user_data&lt;/div&gt;&lt;div&gt;Armazena dados nao sensíveis de usuários&lt;/div&gt;&lt;div&gt;para acesso rapido de qualquer serviço interno&lt;/div&gt;" style="sketch=0;points=[[0,0,0],[0.25,0,0],[0.5,0,0],[0.75,0,0],[1,0,0],[0,1,0],[0.25,1,0],[0.5,1,0],[0.75,1,0],[1,1,0],[0,0.25,0],[0,0.5,0],[0,0.75,0],[1,0.25,0],[1,0.5,0],[1,0.75,0]];outlineConnect=0;fontColor=#FFFFFF;fillColor=#C925D1;strokeColor=#ffffff;dashed=0;verticalLabelPosition=bottom;verticalAlign=top;align=center;html=1;fontSize=12;fontStyle=0;aspect=fixed;shape=mxgraph.aws4.resourceIcon;resIcon=mxgraph.aws4.dynamodb;labelBackgroundColor=default;" vertex="1" parent="1">
          <mxGeometry x="470" y="690" width="78" height="78" as="geometry" />
        </mxCell>
        <mxCell id="t9iJrchAdI6HD7SIDU0L-10" value="API Gateway&lt;div&gt;auth_api&lt;br&gt;&lt;div&gt;Possui rotas para criação e autenticação de usuários&lt;/div&gt;&lt;div&gt;isolando o gerenciamento de login em um serviço&lt;/div&gt;&lt;div&gt;independente&lt;/div&gt;&lt;/div&gt;" style="sketch=0;points=[[0,0,0],[0.25,0,0],[0.5,0,0],[0.75,0,0],[1,0,0],[0,1,0],[0.25,1,0],[0.5,1,0],[0.75,1,0],[1,1,0],[0,0.25,0],[0,0.5,0],[0,0.75,0],[1,0.25,0],[1,0.5,0],[1,0.75,0]];outlineConnect=0;fontColor=#FFFFFF;fillColor=#8C4FFF;strokeColor=#ffffff;dashed=0;verticalLabelPosition=bottom;verticalAlign=top;align=center;html=1;fontSize=12;fontStyle=0;aspect=fixed;shape=mxgraph.aws4.resourceIcon;resIcon=mxgraph.aws4.api_gateway;labelBackgroundColor=default;" vertex="1" parent="1">
          <mxGeometry x="140" y="390" width="78" height="78" as="geometry" />
        </mxCell>
        <mxCell id="t9iJrchAdI6HD7SIDU0L-11" value="S3&lt;div&gt;Armazena pacote de deploy dos lambdas&lt;/div&gt;" style="sketch=0;points=[[0,0,0],[0.25,0,0],[0.5,0,0],[0.75,0,0],[1,0,0],[0,1,0],[0.25,1,0],[0.5,1,0],[0.75,1,0],[1,1,0],[0,0.25,0],[0,0.5,0],[0,0.75,0],[1,0.25,0],[1,0.5,0],[1,0.75,0]];outlineConnect=0;fontColor=#FFFFFF;fillColor=#7AA116;strokeColor=#ffffff;dashed=0;verticalLabelPosition=bottom;verticalAlign=top;align=center;html=1;fontSize=12;fontStyle=0;aspect=fixed;shape=mxgraph.aws4.resourceIcon;resIcon=mxgraph.aws4.s3;labelBackgroundColor=default;" vertex="1" parent="1">
          <mxGeometry x="241" y="110" width="78" height="78" as="geometry" />
        </mxCell>
        <mxCell id="PxZXXpu_mpko-BkxEv01-9" style="edgeStyle=orthogonalEdgeStyle;rounded=0;orthogonalLoop=1;jettySize=auto;html=1;labelBackgroundColor=default;entryX=0;entryY=0.5;entryDx=0;entryDy=0;entryPerimeter=0;" edge="1" parent="1" source="gktEL5zK5B-jhbFFRFUQ-1" target="t9iJrchAdI6HD7SIDU0L-5">
          <mxGeometry relative="1" as="geometry" />
        </mxCell>
        <mxCell id="PxZXXpu_mpko-BkxEv01-14" style="edgeStyle=orthogonalEdgeStyle;rounded=0;orthogonalLoop=1;jettySize=auto;html=1;" edge="1" parent="1" source="gktEL5zK5B-jhbFFRFUQ-2" target="t9iJrchAdI6HD7SIDU0L-2">
          <mxGeometry relative="1" as="geometry" />
        </mxCell>
        <mxCell id="gktEL5zK5B-jhbFFRFUQ-2" value="Lambda&lt;div&gt;authorizer&lt;/div&gt;&lt;div&gt;Valida se o JWT pasado via header é válido, autorizando o usuário a rota&lt;/div&gt;" style="sketch=0;points=[[0,0,0],[0.25,0,0],[0.5,0,0],[0.75,0,0],[1,0,0],[0,1,0],[0.25,1,0],[0.5,1,0],[0.75,1,0],[1,1,0],[0,0.25,0],[0,0.5,0],[0,0.75,0],[1,0.25,0],[1,0.5,0],[1,0.75,0]];outlineConnect=0;fontColor=#FFFFFF;fillColor=#ED7100;strokeColor=#ffffff;dashed=0;verticalLabelPosition=bottom;verticalAlign=top;align=center;html=1;fontSize=12;fontStyle=0;aspect=fixed;shape=mxgraph.aws4.resourceIcon;resIcon=mxgraph.aws4.lambda;labelBackgroundColor=default;" vertex="1" parent="1">
          <mxGeometry x="850" y="690" width="78" height="78" as="geometry" />
        </mxCell>
        <mxCell id="PxZXXpu_mpko-BkxEv01-1" style="edgeStyle=orthogonalEdgeStyle;rounded=0;orthogonalLoop=1;jettySize=auto;html=1;entryX=0;entryY=0.5;entryDx=0;entryDy=0;entryPerimeter=0;labelBackgroundColor=default;" edge="1" parent="1" source="t9iJrchAdI6HD7SIDU0L-10" target="gktEL5zK5B-jhbFFRFUQ-1">
          <mxGeometry relative="1" as="geometry" />
        </mxCell>
        <mxCell id="PxZXXpu_mpko-BkxEv01-2" style="edgeStyle=orthogonalEdgeStyle;rounded=0;orthogonalLoop=1;jettySize=auto;html=1;entryX=0;entryY=0.5;entryDx=0;entryDy=0;entryPerimeter=0;labelBackgroundColor=default;" edge="1" parent="1" source="t9iJrchAdI6HD7SIDU0L-10" target="t9iJrchAdI6HD7SIDU0L-1">
          <mxGeometry relative="1" as="geometry" />
        </mxCell>
        <mxCell id="PxZXXpu_mpko-BkxEv01-3" value="Eventos HTTP" style="text;html=1;align=center;verticalAlign=middle;resizable=0;points=[];autosize=1;strokeColor=none;fillColor=none;labelBackgroundColor=default;" vertex="1" parent="1">
          <mxGeometry x="230" y="390" width="100" height="30" as="geometry" />
        </mxCell>
        <mxCell id="PxZXXpu_mpko-BkxEv01-8" value="Autentica login do usuário" style="text;html=1;align=center;verticalAlign=middle;resizable=0;points=[];autosize=1;strokeColor=none;fillColor=none;labelBackgroundColor=default;" vertex="1" parent="1">
          <mxGeometry x="670" y="308" width="160" height="30" as="geometry" />
        </mxCell>
        <mxCell id="PxZXXpu_mpko-BkxEv01-10" value="Cria usuário" style="text;html=1;align=center;verticalAlign=middle;resizable=0;points=[];autosize=1;strokeColor=none;fillColor=none;labelBackgroundColor=default;" vertex="1" parent="1">
          <mxGeometry x="620" y="490" width="90" height="30" as="geometry" />
        </mxCell>
        <mxCell id="t9iJrchAdI6HD7SIDU0L-5" value="Cognito&lt;div&gt;main_user_pool&lt;br&gt;&lt;div&gt;Armazena de forma segura os dados sensíveis&lt;/div&gt;&lt;div&gt;de usuário, autentica e gerencia sessões.&lt;/div&gt;&lt;/div&gt;" style="sketch=0;points=[[0,0,0],[0.25,0,0],[0.5,0,0],[0.75,0,0],[1,0,0],[0,1,0],[0.25,1,0],[0.5,1,0],[0.75,1,0],[1,1,0],[0,0.25,0],[0,0.5,0],[0,0.75,0],[1,0.25,0],[1,0.5,0],[1,0.75,0]];outlineConnect=0;fontColor=#FFFFFF;fillColor=#DD344C;strokeColor=#ffffff;dashed=0;verticalLabelPosition=bottom;verticalAlign=top;align=center;html=1;fontSize=12;fontStyle=0;aspect=fixed;shape=mxgraph.aws4.resourceIcon;resIcon=mxgraph.aws4.cognito;labelBackgroundColor=default;" vertex="1" parent="1">
          <mxGeometry x="880" y="378" width="78" height="78" as="geometry" />
        </mxCell>
        <mxCell id="PxZXXpu_mpko-BkxEv01-11" style="edgeStyle=orthogonalEdgeStyle;rounded=0;orthogonalLoop=1;jettySize=auto;html=1;exitX=0.5;exitY=1;exitDx=0;exitDy=0;exitPerimeter=0;entryX=0.5;entryY=0;entryDx=0;entryDy=0;entryPerimeter=0;" edge="1" parent="1" source="gktEL5zK5B-jhbFFRFUQ-1" target="t9iJrchAdI6HD7SIDU0L-3">
          <mxGeometry relative="1" as="geometry" />
        </mxCell>
        <mxCell id="PxZXXpu_mpko-BkxEv01-12" value="Armazena dados de usuário" style="text;html=1;align=center;verticalAlign=middle;resizable=0;points=[];autosize=1;strokeColor=none;fillColor=none;" vertex="1" parent="1">
          <mxGeometry x="510" y="628" width="170" height="30" as="geometry" />
        </mxCell>
        <mxCell id="gktEL5zK5B-jhbFFRFUQ-1" value="Lambda&lt;div&gt;Sign-up&lt;/div&gt;&lt;div&gt;Cadastra um novo usuário, onde o username=CPF e uma senha valida&lt;/div&gt;" style="sketch=0;points=[[0,0,0],[0.25,0,0],[0.5,0,0],[0.75,0,0],[1,0,0],[0,1,0],[0.25,1,0],[0.5,1,0],[0.75,1,0],[1,1,0],[0,0.25,0],[0,0.5,0],[0,0.75,0],[1,0.25,0],[1,0.5,0],[1,0.75,0]];outlineConnect=0;fontColor=#FFFFFF;fillColor=#ED7100;strokeColor=#ffffff;dashed=0;verticalLabelPosition=bottom;verticalAlign=top;align=center;html=1;fontSize=12;fontStyle=0;aspect=fixed;shape=mxgraph.aws4.resourceIcon;resIcon=mxgraph.aws4.lambda;labelBackgroundColor=default;" vertex="1" parent="1">
          <mxGeometry x="470" y="480" width="78" height="78" as="geometry" />
        </mxCell>
        <mxCell id="PxZXXpu_mpko-BkxEv01-15" value="Processa evento de item criado" style="text;html=1;align=center;verticalAlign=middle;resizable=0;points=[];autosize=1;strokeColor=none;fillColor=none;" vertex="1" parent="1">
          <mxGeometry x="600" y="700" width="190" height="30" as="geometry" />
        </mxCell>
        <mxCell id="PxZXXpu_mpko-BkxEv01-16" value="Recebe evento processado" style="text;html=1;align=center;verticalAlign=middle;resizable=0;points=[];autosize=1;strokeColor=none;fillColor=none;" vertex="1" parent="1">
          <mxGeometry x="1010" y="700" width="170" height="30" as="geometry" />
        </mxCell>
      </root>
    </mxGraphModel>
  </diagram>
  <diagram id="fUT95ePupS3mg_8KFd1k" name="App">
    <mxGraphModel dx="1687" dy="982" grid="1" gridSize="10" guides="1" tooltips="1" connect="1" arrows="1" fold="1" page="1" pageScale="1" pageWidth="850" pageHeight="1100" math="0" shadow="0">
      <root>
        <mxCell id="0" />
        <mxCell id="1" parent="0" />
        <mxCell id="zDn3kh6L27e9PYtGUCNW-5" style="edgeStyle=orthogonalEdgeStyle;rounded=0;orthogonalLoop=1;jettySize=auto;html=1;" edge="1" parent="1" source="8YwN-Ixi1IJPXv7yt0h1-5" target="zDn3kh6L27e9PYtGUCNW-4">
          <mxGeometry relative="1" as="geometry" />
        </mxCell>
        <mxCell id="8YwN-Ixi1IJPXv7yt0h1-5" value="" style="rounded=0;whiteSpace=wrap;html=1;fillColor=none;dashed=1;dashPattern=12 12;" vertex="1" parent="1">
          <mxGeometry x="740" y="220" width="320" height="350" as="geometry" />
        </mxCell>
        <mxCell id="8YwN-Ixi1IJPXv7yt0h1-6" value="" style="rounded=0;whiteSpace=wrap;html=1;fillColor=none;dashed=1;dashPattern=12 12;" vertex="1" parent="1">
          <mxGeometry x="860" y="230" width="160" height="320" as="geometry" />
        </mxCell>
        <mxCell id="8YwN-Ixi1IJPXv7yt0h1-8" style="edgeStyle=orthogonalEdgeStyle;rounded=0;orthogonalLoop=1;jettySize=auto;html=1;" edge="1" parent="1" source="8YwN-Ixi1IJPXv7yt0h1-5" target="8YwN-Ixi1IJPXv7yt0h1-7">
          <mxGeometry relative="1" as="geometry" />
        </mxCell>
        <mxCell id="8YwN-Ixi1IJPXv7yt0h1-11" style="edgeStyle=orthogonalEdgeStyle;rounded=0;orthogonalLoop=1;jettySize=auto;html=1;" edge="1" parent="1" source="8YwN-Ixi1IJPXv7yt0h1-5" target="QD0d67jvxKHeWyd3XD7l-3">
          <mxGeometry relative="1" as="geometry" />
        </mxCell>
        <mxCell id="QD0d67jvxKHeWyd3XD7l-2" value="EKS&lt;div&gt;app-cluster&lt;/div&gt;" style="sketch=0;points=[[0,0,0],[0.25,0,0],[0.5,0,0],[0.75,0,0],[1,0,0],[0,1,0],[0.25,1,0],[0.5,1,0],[0.75,1,0],[1,1,0],[0,0.25,0],[0,0.5,0],[0,0.75,0],[1,0.25,0],[1,0.5,0],[1,0.75,0]];outlineConnect=0;fontColor=#FFFFFF;fillColor=#ED7100;strokeColor=#ffffff;dashed=0;verticalLabelPosition=bottom;verticalAlign=top;align=center;html=1;fontSize=12;fontStyle=0;aspect=fixed;shape=mxgraph.aws4.resourceIcon;resIcon=mxgraph.aws4.eks;" vertex="1" parent="1">
          <mxGeometry x="760" y="250" width="78" height="78" as="geometry" />
        </mxCell>
        <mxCell id="QD0d67jvxKHeWyd3XD7l-3" value="ECR&lt;div&gt;Armazena imagem docker&lt;/div&gt;" style="sketch=0;points=[[0,0,0],[0.25,0,0],[0.5,0,0],[0.75,0,0],[1,0,0],[0,1,0],[0.25,1,0],[0.5,1,0],[0.75,1,0],[1,1,0],[0,0.25,0],[0,0.5,0],[0,0.75,0],[1,0.25,0],[1,0.5,0],[1,0.75,0]];outlineConnect=0;fontColor=#FFFFFF;fillColor=#ED7100;strokeColor=#ffffff;dashed=0;verticalLabelPosition=bottom;verticalAlign=top;align=center;html=1;fontSize=12;fontStyle=0;aspect=fixed;shape=mxgraph.aws4.resourceIcon;resIcon=mxgraph.aws4.ecr;" vertex="1" parent="1">
          <mxGeometry x="860" y="698" width="80" height="80" as="geometry" />
        </mxCell>
        <mxCell id="8YwN-Ixi1IJPXv7yt0h1-9" style="edgeStyle=orthogonalEdgeStyle;rounded=0;orthogonalLoop=1;jettySize=auto;html=1;" edge="1" parent="1" source="QD0d67jvxKHeWyd3XD7l-5" target="8YwN-Ixi1IJPXv7yt0h1-7">
          <mxGeometry relative="1" as="geometry" />
        </mxCell>
        <mxCell id="8YwN-Ixi1IJPXv7yt0h1-1" value="Lambda&lt;div&gt;user_created_integrator&lt;/div&gt;&lt;div&gt;Valida se o JWT pasado via header é válido, autorizando o usuário a rota&lt;/div&gt;" style="sketch=0;points=[[0,0,0],[0.25,0,0],[0.5,0,0],[0.75,0,0],[1,0,0],[0,1,0],[0.25,1,0],[0.5,1,0],[0.75,1,0],[1,1,0],[0,0.25,0],[0,0.5,0],[0,0.75,0],[1,0.25,0],[1,0.5,0],[1,0.75,0]];outlineConnect=0;fontColor=#FFFFFF;fillColor=#ED7100;strokeColor=#ffffff;dashed=0;verticalLabelPosition=bottom;verticalAlign=top;align=center;html=1;fontSize=12;fontStyle=0;aspect=fixed;shape=mxgraph.aws4.resourceIcon;resIcon=mxgraph.aws4.lambda;labelBackgroundColor=default;" vertex="1" parent="1">
          <mxGeometry x="270" y="600" width="78" height="78" as="geometry" />
        </mxCell>
        <mxCell id="8YwN-Ixi1IJPXv7yt0h1-3" value="EC2&lt;div&gt;NODE&lt;/div&gt;" style="sketch=0;points=[[0,0,0],[0.25,0,0],[0.5,0,0],[0.75,0,0],[1,0,0],[0,1,0],[0.25,1,0],[0.5,1,0],[0.75,1,0],[1,1,0],[0,0.25,0],[0,0.5,0],[0,0.75,0],[1,0.25,0],[1,0.5,0],[1,0.75,0]];outlineConnect=0;fontColor=#FFFFFF;fillColor=#ED7100;strokeColor=#ffffff;dashed=0;verticalLabelPosition=bottom;verticalAlign=top;align=center;html=1;fontSize=12;fontStyle=0;aspect=fixed;shape=mxgraph.aws4.resourceIcon;resIcon=mxgraph.aws4.ec2;" vertex="1" parent="1">
          <mxGeometry x="910" y="421" width="78" height="78" as="geometry" />
        </mxCell>
        <mxCell id="8YwN-Ixi1IJPXv7yt0h1-4" value="EC2&lt;div&gt;NODE&lt;/div&gt;" style="sketch=0;points=[[0,0,0],[0.25,0,0],[0.5,0,0],[0.75,0,0],[1,0,0],[0,1,0],[0.25,1,0],[0.5,1,0],[0.75,1,0],[1,1,0],[0,0.25,0],[0,0.5,0],[0,0.75,0],[1,0.25,0],[1,0.5,0],[1,0.75,0]];outlineConnect=0;fontColor=#FFFFFF;fillColor=#ED7100;strokeColor=#ffffff;dashed=0;verticalLabelPosition=bottom;verticalAlign=top;align=center;html=1;fontSize=12;fontStyle=0;aspect=fixed;shape=mxgraph.aws4.resourceIcon;resIcon=mxgraph.aws4.ec2;" vertex="1" parent="1">
          <mxGeometry x="910" y="290" width="78" height="78" as="geometry" />
        </mxCell>
        <mxCell id="8YwN-Ixi1IJPXv7yt0h1-7" value="NLB&lt;div&gt;LB gerenciado pelo Kubernetes&lt;/div&gt;&lt;div&gt;alocado na rede inerna&lt;/div&gt;" style="sketch=0;points=[[0,0,0],[0.25,0,0],[0.5,0,0],[0.75,0,0],[1,0,0],[0,1,0],[0.25,1,0],[0.5,1,0],[0.75,1,0],[1,1,0],[0,0.25,0],[0,0.5,0],[0,0.75,0],[1,0.25,0],[1,0.5,0],[1,0.75,0]];outlineConnect=0;fontColor=#FFFFFF;fillColor=#ED7100;strokeColor=#ffffff;dashed=0;verticalLabelPosition=bottom;verticalAlign=top;align=center;html=1;fontSize=12;fontStyle=0;aspect=fixed;shape=mxgraph.aws4.resourceIcon;resIcon=mxgraph.aws4.elastic_load_balancing;" vertex="1" parent="1">
          <mxGeometry x="520" y="356" width="78" height="78" as="geometry" />
        </mxCell>
        <mxCell id="8YwN-Ixi1IJPXv7yt0h1-12" value="Pega imagem no build" style="text;html=1;align=center;verticalAlign=middle;resizable=0;points=[];autosize=1;strokeColor=none;fillColor=none;" vertex="1" parent="1">
          <mxGeometry x="900" y="614" width="140" height="30" as="geometry" />
        </mxCell>
        <mxCell id="8YwN-Ixi1IJPXv7yt0h1-13" value="Repassa eventos HTTP" style="text;html=1;align=center;verticalAlign=middle;resizable=0;points=[];autosize=1;strokeColor=none;fillColor=none;" vertex="1" parent="1">
          <mxGeometry x="360" y="360" width="150" height="30" as="geometry" />
        </mxCell>
        <mxCell id="8YwN-Ixi1IJPXv7yt0h1-14" style="edgeStyle=orthogonalEdgeStyle;rounded=0;orthogonalLoop=1;jettySize=auto;html=1;entryX=0.5;entryY=0;entryDx=0;entryDy=0;entryPerimeter=0;" edge="1" parent="1" source="QD0d67jvxKHeWyd3XD7l-5" target="8YwN-Ixi1IJPXv7yt0h1-1">
          <mxGeometry relative="1" as="geometry" />
        </mxCell>
        <mxCell id="8YwN-Ixi1IJPXv7yt0h1-15" value="Autentica JWT" style="text;html=1;align=center;verticalAlign=middle;resizable=0;points=[];autosize=1;strokeColor=none;fillColor=none;" vertex="1" parent="1">
          <mxGeometry x="310" y="550" width="100" height="30" as="geometry" />
        </mxCell>
        <mxCell id="QD0d67jvxKHeWyd3XD7l-5" value="API Gateway&lt;div&gt;auth_api&lt;br&gt;&lt;div&gt;Possui rotas para criação e autenticação de usuários&lt;/div&gt;&lt;div&gt;isolando o gerenciamento de login em um serviço&lt;/div&gt;&lt;div&gt;independente&lt;/div&gt;&lt;/div&gt;" style="sketch=0;points=[[0,0,0],[0.25,0,0],[0.5,0,0],[0.75,0,0],[1,0,0],[0,1,0],[0.25,1,0],[0.5,1,0],[0.75,1,0],[1,1,0],[0,0.25,0],[0,0.5,0],[0,0.75,0],[1,0.25,0],[1,0.5,0],[1,0.75,0]];outlineConnect=0;fontColor=#FFFFFF;fillColor=#8C4FFF;strokeColor=#ffffff;dashed=0;verticalLabelPosition=bottom;verticalAlign=top;align=center;html=1;fontSize=12;fontStyle=0;aspect=fixed;shape=mxgraph.aws4.resourceIcon;resIcon=mxgraph.aws4.api_gateway;labelBackgroundColor=default;" vertex="1" parent="1">
          <mxGeometry x="270" y="356" width="78" height="78" as="geometry" />
        </mxCell>
        <mxCell id="zDn3kh6L27e9PYtGUCNW-1" value="SQS&lt;div&gt;user_created&lt;br&gt;&lt;div&gt;Recebe eventos de usuário criado&lt;/div&gt;&lt;div&gt;consumidor sincroniza dados do usuário criado&lt;/div&gt;&lt;/div&gt;&lt;div&gt;em seu DB gerenciado&lt;/div&gt;" style="sketch=0;points=[[0,0,0],[0.25,0,0],[0.5,0,0],[0.75,0,0],[1,0,0],[0,1,0],[0.25,1,0],[0.5,1,0],[0.75,1,0],[1,1,0],[0,0.25,0],[0,0.5,0],[0,0.75,0],[1,0.25,0],[1,0.5,0],[1,0.75,0]];outlineConnect=0;fontColor=#FFFFFF;fillColor=#E7157B;strokeColor=#ffffff;dashed=0;verticalLabelPosition=bottom;verticalAlign=top;align=center;html=1;fontSize=12;fontStyle=0;aspect=fixed;shape=mxgraph.aws4.resourceIcon;resIcon=mxgraph.aws4.sqs;labelBackgroundColor=default;" vertex="1" parent="1">
          <mxGeometry x="1240" y="356" width="78" height="78" as="geometry" />
        </mxCell>
        <mxCell id="zDn3kh6L27e9PYtGUCNW-2" style="edgeStyle=orthogonalEdgeStyle;rounded=0;orthogonalLoop=1;jettySize=auto;html=1;entryX=0;entryY=0.5;entryDx=0;entryDy=0;entryPerimeter=0;" edge="1" parent="1" source="8YwN-Ixi1IJPXv7yt0h1-5" target="zDn3kh6L27e9PYtGUCNW-1">
          <mxGeometry relative="1" as="geometry" />
        </mxCell>
        <mxCell id="zDn3kh6L27e9PYtGUCNW-3" value="Consome eventos da fila" style="text;html=1;align=center;verticalAlign=middle;resizable=0;points=[];autosize=1;strokeColor=none;fillColor=none;" vertex="1" parent="1">
          <mxGeometry x="1070" y="360" width="160" height="30" as="geometry" />
        </mxCell>
        <mxCell id="zDn3kh6L27e9PYtGUCNW-4" value="RDS&lt;div&gt;fiap-soat-9&lt;/div&gt;" style="sketch=0;points=[[0,0,0],[0.25,0,0],[0.5,0,0],[0.75,0,0],[1,0,0],[0,1,0],[0.25,1,0],[0.5,1,0],[0.75,1,0],[1,1,0],[0,0.25,0],[0,0.5,0],[0,0.75,0],[1,0.25,0],[1,0.5,0],[1,0.75,0]];outlineConnect=0;fontColor=#FFFFFF;fillColor=#C925D1;strokeColor=#ffffff;dashed=0;verticalLabelPosition=bottom;verticalAlign=top;align=center;html=1;fontSize=12;fontStyle=0;aspect=fixed;shape=mxgraph.aws4.resourceIcon;resIcon=mxgraph.aws4.rds;labelBackgroundColor=default;" vertex="1" parent="1">
          <mxGeometry x="860" y="40" width="78" height="78" as="geometry" />
        </mxCell>
      </root>
    </mxGraphModel>
  </diagram>
</mxfile>
